<svg xmlns="http://www.w3.org/2000/svg" viewBox="0 0 110 33"><defs><style>.a{fill:#f89e01;}.b{fill:#eaeeef;}.c{fill:#fff;}</style></defs><path class="a" d="M11,16.3L4.2,21l2.4-8L0,8l8.3-.2L11,0l2.7,7.9L22,8l-6.6,5,2.4,8Z"/><path class="a" d="M33,16.3L26.2,21l2.4-8L22,8l8.3-.2L33,0l2.7,7.9L44,8l-6.6,5,2.4,8Z"/><path class="a" d="M55,16.3L48.2,21l2.4-8L44,8l8.3-.2L55,0l2.7,7.9L66,8l-6.6,5,2.4,8Z"/><path class="b" d="M77,16.3L70.2,21l2.4-8L66,8l8.3-.2L77,0l2.7,7.9L88,8l-6.6,5,2.4,8Z"/><path class="b" d="M99,16.3L92.2,21l2.4-8L88,8l8.3-.2L99,0l2.7,7.9L110,8l-6.6,5,2.4,8Z"/><polygon class="c" points="53 22 54 22 54 23 55 23 55 12 57 12 57 21 58 21 58 17 60 17 60 21 61 21 61 18 63 18 63 22 64 22 64 19 65 19 65 20 66 20 66 27 65 27 65 30 64 30 64 32 56 32 56 30 55 30 55 28 54 28 54 26 53 26 53 24 52 24 52 23 51 23 51 21 53 21 53 22"/><polygon points="53 21 53 22 54 22 54 23 55 23 55 12 54 12 54 21 53 21 53 20 50 20 50 23 51 23 51 21 53 21"/><polygon points="63 18 63 22 64 22 64 19 65 19 65 18 63 18"/><polygon points="60 17 60 21 61 21 61 18 63 18 63 17 60 17"/><rect x="65" y="19" width="1" height="1"/><rect x="51" y="23" width="1" height="1"/><rect x="65" y="27" width="1" height="3"/><polygon points="64 32 56 32 56 30 55 30 55 33 65 33 65 30 64 30 64 32"/><rect x="54" y="28" width="1" height="2"/><rect x="53" y="26" width="1" height="2"/><rect x="52" y="24" width="1" height="2"/><rect x="66" y="20" width="1" height="7"/><rect x="55" y="11" width="2" height="1"/><polygon points="58 16 58 12 57 12 57 21 58 21 58 17 60 17 60 16 58 16"/></svg>